<svg width="120" height="60" viewBox="0 0 120 60" fill="none" xmlns="http://www.w3.org/2000/svg">
<path d="M90.6995 33.675C90.6995 24.0189 97.1747 19.3257 104.082 19.3257C107.535 19.3257 110.341 20.2967 111.852 21.915L112.769 20.0809H120V46.1901C120 54.9831 114.658 60 104.729 60C99.9807 60 95.0703 58.6514 91.1311 55.1989L95.2321 49.0492C97.6604 51.3688 101.06 52.9332 104.729 52.9332C108.776 52.9332 111.15 50.7754 111.15 46.5678V45.4349C109.532 46.8375 106.78 47.7545 104.082 47.7545C97.1747 47.7545 90.6995 43.3311 90.6995 33.675ZM105.485 40.9575C108.83 40.9575 111.42 38.7997 111.42 33.675C111.42 28.5502 108.83 26.3924 105.485 26.3924C102.139 26.3924 99.549 28.5502 99.549 33.675C99.549 38.7997 102.139 40.9575 105.485 40.9575Z" fill="#5366FB"/>
<path d="M71.4596 49.6426C61.4769 49.6426 55.973 43.0074 55.973 34.5381C55.973 26.0688 61.4769 19.3257 71.4596 19.3257C81.4423 19.3257 86.9463 26.0688 86.9463 34.5381C86.9463 43.0074 81.4423 49.6426 71.4596 49.6426ZM64.5527 34.5381C64.5527 39.1234 66.819 42.5758 71.4596 42.5758C76.1002 42.5758 78.3666 39.1234 78.3666 34.5381C78.3666 29.9528 76.1002 26.3924 71.4596 26.3924C66.819 26.3924 64.5527 29.9528 64.5527 34.5381Z" fill="#5366FB"/>
<path d="M52.1966 49.6427H49.7144C44.2104 49.6427 40.6491 46.8915 40.6491 40.8497V14.0392C40.6491 11.3959 39.6238 9.61574 37.5193 8.75262V8.42896H49.4986V39.9327C49.4986 41.7668 50.3619 42.3062 52.1966 42.3062V49.6427Z" fill="#5366FB"/>
<path d="M11.9792 48.8875H5.71981C3.99307 48.8875 3.12971 48.0244 3.12971 46.2981V14.0392C3.12971 11.3959 2.10446 9.61574 0 8.75262V8.42896H20.0733C29.0307 8.42896 33.0103 13.4998 33.0103 21.3757C33.0103 29.2516 29.0307 34.3224 20.0733 34.3224H11.9792V48.8875ZM11.9792 27.2017H20.0733C23.837 26.9623 24.579 25.2766 24.579 21.3757C24.579 17.6906 23.837 16.0048 20.0733 15.5497H11.9792V27.2017Z" fill="#5366FB"/>
<path d="M91.0837 2.93058C90.2096 2.00406 89.1602 1.26684 87.9988 0.763223C86.8374 0.259609 85.5878 0 84.3252 0C83.0625 0 81.813 0.259609 80.6515 0.763223C79.4901 1.26684 78.4408 2.00406 77.5666 2.93058C75.9213 5.11771 75.4159 8.39841 76.3407 11.7666C77.287 15.4082 79.8141 18.0437 81.8465 20.1543L82.8358 21.2478C83.028 21.4552 83.2581 21.6223 83.5133 21.7399C83.7689 21.8554 84.0455 21.915 84.3252 21.915C84.6049 21.915 84.8814 21.8554 85.1371 21.7399C85.3875 21.6244 85.6138 21.461 85.8038 21.2588L86.8038 20.1652C88.8362 18.0546 91.3633 15.4191 92.3096 11.7775C93.1806 8.39841 92.729 5.11771 91.0837 2.93058ZM84.3198 11.9525C83.517 11.9527 82.7354 11.6904 82.0905 11.2042C81.4456 10.7181 80.9715 10.0339 80.7382 9.25274C80.5049 8.47158 80.5248 7.63484 80.795 6.86607C81.0652 6.09731 81.5713 5.43729 82.2386 4.98346C82.906 4.52964 83.6991 4.30607 84.5009 4.34579C85.3028 4.3855 86.0708 4.68638 86.6916 5.20399C87.3124 5.72161 87.7531 6.42853 87.9485 7.22035C88.144 8.01217 88.0838 8.84692 87.777 9.60134C87.4936 10.2959 87.0137 10.8891 86.3981 11.3058C85.7826 11.7224 85.0592 11.9437 84.3198 11.9416V11.9525Z" fill="#5366FB"/>
</svg>
