<svg width="48" height="48" viewBox="0 0 48 48" fill="none" xmlns="http://www.w3.org/2000/svg">
<rect x="3.66675" y="4" width="40" height="40" rx="12" fill="#5366FB"/>
<path d="M17.6748 24C17.6748 23.7679 17.767 23.5453 17.9311 23.3813C18.0952 23.2172 18.3177 23.125 18.5498 23.125H22.625V19.0498C22.625 18.8177 22.7172 18.5952 22.8813 18.4311C23.0453 18.267 23.2679 18.1748 23.5 18.1748C23.732 18.1748 23.9546 18.267 24.1187 18.4311C24.2828 18.5952 24.375 18.8177 24.375 19.0498V23.125H28.4501C28.6822 23.125 28.9048 23.2172 29.0689 23.3813C29.233 23.5453 29.3251 23.7679 29.3251 24C29.3251 24.232 29.233 24.4546 29.0689 24.6187C28.9048 24.7828 28.6822 24.875 28.4501 24.875H24.375V28.9501C24.375 29.1822 24.2828 29.4048 24.1187 29.5689C23.9546 29.733 23.732 29.8251 23.5 29.8251C23.2679 29.8251 23.0453 29.733 22.8813 29.5689C22.7172 29.4048 22.625 29.1822 22.625 28.9501V24.875H18.5498C18.3177 24.875 18.0952 24.7828 17.9311 24.6187C17.767 24.4546 17.6748 24.232 17.6748 24Z" fill="white"/>
<path fill-rule="evenodd" clip-rule="evenodd" d="M18.0365 14.3971C21.6677 13.9946 25.3323 13.9946 28.9635 14.3971C31.095 14.6351 32.8158 16.314 33.0655 18.4571C33.4971 22.1403 33.4971 25.8608 33.0655 29.544C32.8146 31.6871 31.0938 33.3648 28.9635 33.604C25.3323 34.0065 21.6677 34.0065 18.0365 33.604C15.905 33.3648 14.1841 31.6871 13.9345 29.544C13.5047 25.8609 13.5047 22.1403 13.9345 18.4571C14.1841 16.314 15.9061 14.6351 18.0365 14.3971ZM28.7698 16.1355C25.2673 15.7472 21.7326 15.7472 18.2301 16.1355C17.5818 16.2074 16.9766 16.4958 16.5123 16.9541C16.0481 17.4125 15.7519 18.0139 15.6716 18.6613C15.2567 22.2091 15.2567 25.7932 15.6716 29.341C15.7521 29.9882 16.0484 30.5893 16.5127 31.0474C16.9769 31.5055 17.5819 31.7938 18.2301 31.8656C21.7033 32.253 25.2966 32.253 28.7698 31.8656C29.4178 31.7935 30.0226 31.5052 30.4866 31.0471C30.9506 30.589 31.2467 29.988 31.3271 29.341C31.7421 25.7932 31.7421 22.2091 31.3271 18.6613C31.2465 18.0145 30.9502 17.4137 30.4863 16.9559C30.0223 16.4981 29.4176 16.2099 28.7698 16.1378" fill="white"/>
</svg>
