<svg width="48" height="48" viewBox="0 0 48 48" fill="none" xmlns="http://www.w3.org/2000/svg">
<rect x="1.6666" y="2" width="44" height="44" rx="12" fill="#5366FB"/>
<path d="M12.1331 23.9095C12.1331 22.8075 12.1331 22.2564 12.3634 21.7773C12.5937 21.2981 13.024 20.9539 13.8846 20.2654L20.8846 14.6654C22.2824 13.5472 22.9813 12.988 23.7998 12.988C24.6183 12.988 25.3172 13.5472 26.7151 14.6654L33.7151 20.2654C34.5756 20.9539 35.0059 21.2981 35.2362 21.7773C35.4665 22.2564 35.4665 22.8075 35.4665 23.9095V30.9999C35.4665 33.1998 35.4665 34.2997 34.783 34.9831C34.0996 35.6666 32.9997 35.6666 30.7998 35.6666H28.4665C27.3665 35.6666 26.8166 35.6666 26.4749 35.3249C26.1331 34.9831 26.1331 34.4332 26.1331 33.3332V30.9999C26.1331 29.9 26.1331 29.35 25.7914 29.0083C25.4497 28.6666 24.8997 28.6666 23.7998 28.6666C22.6999 28.6666 22.1499 28.6666 21.8082 29.0083C21.4665 29.35 21.4665 29.9 21.4665 30.9999V33.3332C21.4665 34.4332 21.4665 34.9831 21.1248 35.3249C20.783 35.6666 20.2331 35.6666 19.1331 35.6666H16.7998C14.5999 35.6666 13.5 35.6666 12.8166 34.9831C12.1331 34.2997 12.1331 33.1998 12.1331 30.9999V23.9095Z" fill="white"/>
</svg>
