<svg width="48" height="48" viewBox="0 0 48 48" fill="none" xmlns="http://www.w3.org/2000/svg">
<rect x="3.66675" y="4" width="40" height="40" rx="12" fill="#5366FB"/>
<path fill-rule="evenodd" clip-rule="evenodd" d="M18.5335 18.1667C18.5335 16.929 19.0252 15.742 19.9004 14.8668C20.7755 13.9917 21.9625 13.5 23.2002 13.5C24.4379 13.5 25.6249 13.9917 26.5 14.8668C27.3752 15.742 27.8669 16.929 27.8669 18.1667C27.8669 19.4043 27.3752 20.5913 26.5 21.4665C25.6249 22.3417 24.4379 22.8333 23.2002 22.8333C21.9625 22.8333 20.7755 22.3417 19.9004 21.4665C19.0252 20.5913 18.5335 19.4043 18.5335 18.1667ZM18.5335 25.1667C16.9864 25.1667 15.5027 25.7812 14.4087 26.8752C13.3148 27.9692 12.7002 29.4529 12.7002 31C12.7002 31.9283 13.0689 32.8185 13.7253 33.4749C14.3817 34.1313 15.2719 34.5 16.2002 34.5H30.2002C31.1285 34.5 32.0187 34.1313 32.6751 33.4749C33.3314 32.8185 33.7002 31.9283 33.7002 31C33.7002 29.4529 33.0856 27.9692 31.9917 26.8752C30.8977 25.7812 29.414 25.1667 27.8669 25.1667H18.5335Z" fill="white"/>
</svg>
