<svg width="48" height="48" viewBox="0 0 48 48" fill="none" xmlns="http://www.w3.org/2000/svg">
<rect x="4" y="4" width="40" height="40" rx="12" fill="#5366FB"/>
<path d="M22.3337 29.3339C23.253 29.3339 24.1632 29.1529 25.0125 28.8011C25.8618 28.4493 26.6335 27.9337 27.2835 27.2837C27.9335 26.6337 28.4491 25.862 28.8009 25.0127C29.1527 24.1634 29.3337 23.2532 29.3337 22.3339C29.3337 21.4147 29.1527 20.5044 28.8009 19.6551C28.4491 18.8059 27.9335 18.0342 27.2835 17.3842C26.6335 16.7342 25.8618 16.2185 25.0125 15.8668C24.1632 15.515 23.253 15.3339 22.3337 15.3339C20.4772 15.3339 18.6967 16.0714 17.384 17.3842C16.0712 18.6969 15.3337 20.4774 15.3337 22.3339C15.3337 24.1904 16.0712 25.9709 17.384 27.2837C18.6967 28.5964 20.4772 29.3339 22.3337 29.3339ZM29.7071 28.0576L33.8837 32.2343C33.9951 32.342 34.0839 32.4708 34.1449 32.6131C34.206 32.7555 34.238 32.9086 34.2393 33.0635C34.2405 33.2184 34.2109 33.372 34.1521 33.5154C34.0933 33.6587 34.0066 33.7889 33.897 33.8984C33.7874 34.0078 33.6571 34.0944 33.5137 34.1529C33.3702 34.2115 33.2166 34.2409 33.0617 34.2395C32.9068 34.238 32.7537 34.2057 32.6114 34.1445C32.4691 34.0832 32.3404 33.9943 32.2329 33.8828L28.0562 29.7061C26.1808 31.1619 23.821 31.8483 21.4573 31.6255C19.0936 31.4027 16.9036 30.2875 15.3332 28.5068C13.7628 26.7262 12.93 24.414 13.0044 22.041C13.0788 19.668 14.0547 17.4125 15.7335 15.7337C17.4123 14.0549 19.6678 13.0789 22.0408 13.0046C24.4138 12.9302 26.726 13.763 28.5066 15.3334C30.2873 16.9038 31.4025 19.0938 31.6253 21.4575C31.8481 23.8212 31.1617 26.181 29.7059 28.0564L29.7071 28.0576Z" fill="white"/>
</svg>
